# xmcd
#
# Track frame offsets: 
#        150
#        15264
#        31934
#        35372
#        41038
#        46442
#
# Disc length: 675 seconds
#
# Revision: 0
# Processed by: cddbd v1.5.2PL0 Copyright (c) Steve Scherf et al.
# Submitted via: ExactAudioCopy v0.99pb4
#
DISCID=3e02a106
DTITLE=DaQuela payne - blue sky
DYEAR=2008
DGENRE=Gospel
TTITLE0=blue sky (radio edit)
TTITLE1=blue sky (album version)
TTITLE2=so happy (snippet)
TTITLE3=never too far (snippet)
TTITLE4=incredible (snippet)
TTITLE5=shining star (snippet)
EXTD=
EXTT0=
EXTT1=
EXTT2=
EXTT3=
EXTT4=
EXTT5=
PLAYORDER=
